<svg width="51" height="50" viewBox="0 0 51 50" fill="none" xmlns="http://www.w3.org/2000/svg">
<path fill-rule="evenodd" clip-rule="evenodd" d="M50.3465 33.9915C49.4233 34.5769 48.4518 35.1136 47.4316 35.5524C45.1969 36.4794 42.8166 36.9672 40.3875 36.9672C37.9585 36.9672 35.5781 36.4794 33.3919 35.5524C31.2057 34.6256 29.3114 33.3085 27.6593 31.6499C26.0078 29.9914 24.696 28.0888 23.7731 25.894C22.8501 23.6988 22.3643 21.3085 22.3643 18.8693C22.3643 16.4303 22.8501 14.04 23.7731 11.7963C24.696 9.64977 26.0078 7.69853 27.6593 6.03999C29.3114 4.38144 31.2057 3.0643 33.3919 2.18621C35.5781 1.21048 37.9585 0.771652 40.3875 0.771652C42.8166 0.771652 45.1969 1.21048 47.4316 2.18621C47.6745 2.28385 47.966 2.4302 48.2088 2.52762V9.21073C46.0226 7.40583 43.3022 6.43032 40.3875 6.43032C37.084 6.43032 33.9748 7.69853 31.6429 10.0888C29.3114 12.4302 27.9997 15.5522 27.9997 18.8693C27.9997 22.1866 29.3114 25.3086 31.6429 27.6498C33.9748 29.9914 37.084 31.3085 40.3875 31.3085C43.6909 31.3085 46.8001 29.9914 49.1318 27.6498C49.569 27.2107 49.9578 26.7717 50.3465 26.2839V33.9915Z" fill="black"/>
<path fill-rule="evenodd" clip-rule="evenodd" d="M40.3875 1.42786C37.9406 1.42786 35.6761 1.88472 33.6573 2.78577C31.6222 3.60378 29.7672 4.85139 28.1213 6.50393C26.532 8.09981 25.2709 9.9678 24.3729 12.0564C23.4749 14.2394 23.0178 16.5348 23.0178 18.8693C23.0178 21.2193 23.4743 23.4969 24.3751 25.6389C25.2371 27.6893 26.4976 29.5555 28.1213 31.186C29.7457 32.8168 31.6044 34.0823 33.646 34.9479C35.7792 35.8524 38.0472 36.311 40.3875 36.311C42.7126 36.311 44.9986 35.8518 47.1822 34.946C47.996 34.5958 48.8221 34.1621 49.693 33.6269V28.0133C49.6603 28.0468 49.6272 28.0803 49.5938 28.1137C47.1211 30.5971 43.8516 31.9647 40.3875 31.9647C36.9235 31.9647 33.6539 30.5971 31.1809 28.1137C28.7081 25.6307 27.3462 22.3478 27.3462 18.8693C27.3462 15.3913 28.7081 12.1081 31.1809 9.62489C33.6017 7.1434 36.8729 5.77412 40.3875 5.77412C42.9985 5.77412 45.4514 6.50865 47.5553 7.9099V2.9568C47.5532 2.95594 47.551 2.95487 47.5489 2.95379C47.4252 2.89736 47.3014 2.84071 47.1888 2.79543C45.1041 1.88558 42.8218 1.42786 40.3875 1.42786ZM40.3875 37.6232C37.8715 37.6232 35.4325 37.1298 33.1378 36.1569C30.94 35.2252 28.9415 33.8649 27.1974 32.1141C25.4538 30.3633 24.0992 28.3564 23.1711 26.1492C22.2021 23.8447 21.7108 21.3954 21.7108 18.8693C21.7108 16.3621 22.2015 13.8982 23.1691 11.5457C24.1368 9.29506 25.4906 7.28975 27.1974 5.57605C28.9691 3.79712 30.9717 2.45166 33.1491 1.577C35.3135 0.6105 37.7563 0.115662 40.3875 0.115662C43.0021 0.115662 45.4599 0.609856 47.6923 1.58451C47.8041 1.62915 47.947 1.69417 48.0896 1.75919C48.2142 1.81605 48.3383 1.87313 48.4514 1.91841L48.8623 2.08321V10.5995L47.7938 9.71759C45.7089 7.99617 43.1479 7.08653 40.3875 7.08653C37.227 7.08653 34.2875 8.31569 32.1096 10.5478C29.879 12.7881 28.653 15.7417 28.653 18.8693C28.653 21.9971 29.879 24.9507 32.1049 27.1861C34.3311 29.4212 37.2727 30.6525 40.3875 30.6525C43.5024 30.6525 46.4438 29.4212 48.6698 27.1861C49.0831 26.7708 49.4538 26.3539 49.8364 25.8741L51 24.414V34.3531L50.6955 34.5462C49.6526 35.2076 48.6691 35.7339 47.6889 36.1554C45.3386 37.1305 42.8846 37.6232 40.3875 37.6232Z" fill="black"/>
<path fill-rule="evenodd" clip-rule="evenodd" d="M11.341 19.5343C13.673 19.5343 15.4219 18.8513 16.5392 17.5829C17.8994 16.1198 18.1424 14.0709 18.1424 12.6561C18.1424 11.1927 17.8994 9.14399 16.5392 7.68051C15.4219 6.41208 13.673 5.77797 11.341 5.77797H6.28866V19.5343H11.341ZM25.8665 36.8515H19.5026L10.4181 24.6076H6.28866V36.8515H0.653503V0.656204H11.341C16.1019 0.656204 18.8711 2.60745 20.3286 4.26578C22.2233 6.36337 23.2431 9.29034 23.2431 12.6561C23.2431 15.9734 22.2233 18.9 20.3286 20.9976C19.4541 21.9733 18.0939 23.0952 16.1507 23.7782L25.8665 36.8515Z" fill="black"/>
<path fill-rule="evenodd" clip-rule="evenodd" d="M6.94217 18.8783H11.3411C13.4544 18.8783 15.0386 18.2961 16.0498 17.1483C17.0087 16.1164 17.4889 14.6093 17.4889 12.6561C17.4889 10.6706 17.0087 9.14743 16.0613 8.12814C15.0672 6.99984 13.483 6.43419 11.3411 6.43419H6.94217V18.8783ZM11.3411 20.1905H5.63537V5.12199H11.3411C13.8737 5.12199 15.7874 5.83656 17.0286 7.24597C18.1971 8.50281 18.7957 10.3274 18.7957 12.6561C18.7957 14.9524 18.1971 16.7608 17.0168 18.0307C15.7585 19.4594 13.8452 20.1905 11.3411 20.1905ZM19.8304 36.1955H24.5635L15.0945 23.4542L15.9346 23.1589C17.8385 22.4898 19.1107 21.3755 19.8428 20.5588C21.6149 18.597 22.5898 15.7911 22.5898 12.6561C22.5898 9.44377 21.6405 6.69491 19.8445 4.70676C18.4805 3.15465 15.9038 1.3122 11.3411 1.3122H1.30701V36.1955H5.63537V23.9514H10.7461L19.8304 36.1955ZM27.1695 37.5077H19.1746L10.09 25.2638H6.94217V37.5077H0V0H11.3411C16.3913 0 19.2823 2.08364 20.8184 3.83167C22.8302 6.05866 23.8966 9.11245 23.8966 12.6561C23.8966 16.1177 22.8013 19.2367 20.8124 21.4383C20.0897 22.245 18.9021 23.3083 17.1846 24.0724L27.1695 37.5077ZM2.63988 45.2264C3.16901 45.2264 3.56586 45.0711 3.81974 44.7833C4.12833 44.4513 4.18347 43.9861 4.18347 43.6655C4.18347 43.3329 4.12833 42.8683 3.81974 42.5364C3.56586 42.2486 3.16901 42.1042 2.63988 42.1042H1.49336V45.2264H2.63988ZM5.93627 49.156H4.49206L2.43067 46.377H1.49336V49.156H0.214559V40.942H2.63988C3.72037 40.942 4.34887 41.3849 4.67947 41.7613C5.10923 42.2372 5.34089 42.9014 5.34089 43.6655C5.34089 44.4176 5.10923 45.0824 4.67947 45.5584C4.48116 45.7796 4.17235 46.0344 3.73127 46.1889L5.93627 49.156ZM11.5257 46.2446L10.5333 43.7428L9.54124 46.2446H11.5257ZM11.9886 47.3955H9.07793L8.38339 49.156H6.9723L10.5333 40.5654L14.0831 49.156H12.6831L11.9886 47.3955ZM19.6396 43.6541C19.6396 43.3329 19.5734 42.8683 19.2757 42.5364C19.0111 42.2486 18.614 42.0932 18.0849 42.0932H16.9386V45.2148H18.0849C18.614 45.2148 19.0111 45.0711 19.2757 44.7833C19.5734 44.4513 19.6396 43.9861 19.6396 43.6541ZM16.7401 40.942H18.0849C19.1654 40.942 19.7939 41.3849 20.1245 41.7499C20.5654 42.2372 20.7859 42.8904 20.7859 43.6541C20.7859 44.4176 20.5654 45.0824 20.1245 45.5584C19.7939 45.9348 19.1654 46.377 18.0849 46.377H16.9386V49.156H15.6596V40.942H16.7401ZM28.2935 48.4804C28.0839 48.6135 27.8636 48.7351 27.6321 48.8347C27.1246 49.045 26.5843 49.156 26.0334 49.156C25.4823 49.156 24.942 49.045 24.446 48.8347C23.95 48.6249 23.5198 48.3257 23.145 47.9493C22.7701 47.5729 22.4725 47.1414 22.263 46.6434C22.0536 46.1446 21.9433 45.6028 21.9433 45.049C21.9433 44.4958 22.0536 43.9533 22.263 43.4439C22.4725 42.9572 22.7701 42.514 23.145 42.1377C23.5198 41.7613 23.95 41.4621 24.446 41.2632C24.942 41.0413 25.4823 40.942 26.0334 40.942C26.5843 40.942 27.1246 41.0413 27.6321 41.2632C27.687 41.2853 27.7533 41.3184 27.8082 41.3405V42.857C27.312 42.4475 26.6948 42.2265 26.0334 42.2265C25.2837 42.2265 24.5783 42.514 24.049 43.0565C23.5198 43.5876 23.2223 44.296 23.2223 45.049C23.2223 45.8017 23.5198 46.5103 24.049 47.0412C24.5783 47.5729 25.2837 47.8721 26.0334 47.8721C26.7833 47.8721 27.4887 47.5729 28.0176 47.0412C28.1174 46.9418 28.2051 46.8423 28.2935 46.7313V48.4804Z" fill="black"/>
<path fill-rule="evenodd" clip-rule="evenodd" d="M35.7896 49.1559H34.5111V45.6135H31.2476V49.1559H29.969V40.942H31.2476V44.4513H34.5111V40.942H35.7896V49.1559Z" fill="black"/>
<path fill-rule="evenodd" clip-rule="evenodd" d="M41.908 46.2446L40.916 43.7428L39.9237 46.2446H41.908ZM42.3713 47.3955H39.4606L38.7663 49.1559H37.3552L40.916 40.5654L44.4658 49.1559H43.066L42.3713 47.3955Z" fill="black"/>
<path fill-rule="evenodd" clip-rule="evenodd" d="M50.1766 42.0932H47.928V49.1559H46.6381V42.0932H44.3889V40.942H50.1766V42.0932Z" fill="black"/>
</svg>
